<?xml version="1.0" encoding="UTF-8"?>
<svg version="1.1" xmlns="http://www.w3.org/2000/svg" width="314" height="385">
<path d="M0 0 C3.04834633 0.96408543 4.2588141 2.10347714 6.40625 4.4453125 C9.62291134 7.83032247 12.93704847 10.93810085 16.47265625 13.984375 C18.80914098 16.00674668 21.10989062 18.06500074 23.40625 20.1328125 C24.25058594 20.89207031 25.09492188 21.65132812 25.96484375 22.43359375 C27.7387506 24.04407976 29.50158974 25.66682973 31.25390625 27.30078125 C40.25988411 35.65884704 49.36242436 43.55884385 60.90625 48.1328125 C66.97148 50.6993909 72.97504344 54.20965737 76.59375 59.8203125 C77.28125 62.5703125 77.28125 62.5703125 77.59375 64.8203125 C78.91375 64.8203125 80.23375 64.8203125 81.59375 64.8203125 C81.26375 65.8103125 80.93375 66.8003125 80.59375 67.8203125 C79.38976562 68.02527344 78.18578125 68.23023437 76.9453125 68.44140625 C75.36976308 68.71337609 73.79424379 68.98552057 72.21875 69.2578125 C71.4246875 69.39251953 70.630625 69.52722656 69.8125 69.66601562 C65.57980017 70.33448839 65.57980017 70.33448839 61.59375 71.8203125 C65.48206307 72.72737763 69.12356261 72.96595419 73.11230469 73.00976562 C75.05891998 73.03484192 75.05891998 73.03484192 77.04486084 73.0604248 C77.73281487 73.06710678 78.42076889 73.07378876 79.12957001 73.08067322 C81.28943923 73.10179539 83.44916465 73.12880508 85.60894775 73.15734863 C90.96755761 73.22698214 96.32626882 73.28672287 101.68499756 73.34637451 C106.22397517 73.39723041 110.76287123 73.4519978 115.30173492 73.51219177 C117.4339407 73.53882289 119.56615399 73.55959464 121.69842529 73.5802002 C122.98356018 73.59691772 124.26869507 73.61363525 125.59277344 73.63085938 C126.73018982 73.64338745 127.8676062 73.65591553 129.03948975 73.66882324 C131.59375 73.8203125 131.59375 73.8203125 132.59375 74.8203125 C132.38737173 76.61843804 132.17159006 78.41573938 131.92285156 80.20849609 C131.23556266 85.66295953 130.88425615 91.1522279 130.46875 96.6328125 C130.36949219 97.85935547 130.27023437 99.08589844 130.16796875 100.34960938 C130.07902344 101.52201172 129.99007813 102.69441406 129.8984375 103.90234375 C129.81577637 104.96686768 129.73311523 106.0313916 129.64794922 107.12817383 C129.44122452 109.92150125 129.44122452 109.92150125 130.59375 112.8203125 C131.25375 112.8203125 131.91375 112.8203125 132.59375 112.8203125 C132.92375 113.8103125 133.25375 114.8003125 133.59375 115.8203125 C131.78125 118.5078125 131.78125 118.5078125 129.59375 120.8203125 C128.93375 120.8203125 128.27375 120.8203125 127.59375 120.8203125 C127.46097656 121.95210938 127.32820313 123.08390625 127.19140625 124.25 C127.0132158 125.73179429 126.83481971 127.21356386 126.65625 128.6953125 C126.56923828 129.44167969 126.48222656 130.18804687 126.39257812 130.95703125 C125.70703125 136.59375 125.70703125 136.59375 124.59375 138.8203125 C124.43505791 141.44754817 124.31649408 144.06585502 124.21875 146.6953125 C123.92507608 152.95926612 123.06355164 158.55142613 121.3515625 164.6015625 C120.04652423 170.14461165 119.62899437 175.79217746 119.0546875 181.44921875 C118.46056364 187.27639557 117.52579093 193.03905161 116.59375 198.8203125 C114.21584096 213.75299322 112.30580806 228.73632495 110.4609375 243.7421875 C110.23204834 245.60218384 110.23204834 245.60218384 109.99853516 247.49975586 C109.75914374 249.46354518 109.52307324 251.42775213 109.29443359 253.39282227 C108.00284588 264.36622282 104.2992128 272.19666472 95.5859375 279.2578125 C88.87101767 284.25407344 81.7661853 288.70982471 74.62719727 293.07006836 C69.10303396 296.44655222 63.72942591 300.03411592 58.35357666 303.64105225 C55.11492382 305.81127426 51.86938601 307.97117521 48.625 310.1328125 C47.21481542 311.07287417 45.80465949 312.01297882 44.39453125 312.953125 C40.09375 315.8203125 40.09375 315.8203125 35.79296875 318.6875 C34.73964355 319.38987793 34.73964355 319.38987793 33.66503906 320.10644531 C32.27416424 321.03347986 30.88289422 321.95992177 29.49121094 322.88574219 C26.34002824 324.98298715 23.19450954 327.08720274 20.06640625 329.21875 C19.01324219 329.93289063 17.96007812 330.64703125 16.875 331.3828125 C15.96814453 332.00285156 15.06128906 332.62289063 14.12695312 333.26171875 C6.66273294 337.85419963 -1.30137195 338.72274919 -9.7734375 336.71484375 C-21.14435202 332.85143214 -31.31041151 324.17762635 -41.09912109 317.40869141 C-49.47482495 311.64230735 -57.98507002 306.07964236 -66.53125 300.5703125 C-69.49180921 298.65706574 -72.44973607 296.73980402 -75.40625 294.8203125 C-76.28249023 294.25199707 -77.15873047 293.68368164 -78.06152344 293.09814453 C-80.84864768 291.28469886 -83.62814348 289.46003666 -86.40625 287.6328125 C-87.26621582 287.0749707 -88.12618164 286.51712891 -89.01220703 285.94238281 C-98.21085621 279.86225223 -107.14269416 273.68823257 -110.32348633 262.63208008 C-110.52224365 261.48376709 -110.72100098 260.3354541 -110.92578125 259.15234375 C-111.04226517 258.48096878 -111.15874908 257.80959381 -111.27876282 257.11787415 C-113.1375029 245.96581474 -114.43812148 234.7188837 -115.84310913 223.50315857 C-116.61914624 217.32514539 -117.41030774 211.14903581 -118.19921875 204.97265625 C-118.33326174 203.92146292 -118.33326174 203.92146292 -118.47001266 202.84903336 C-120.85449372 184.16077303 -123.40768496 165.4957267 -125.9675293 146.83081055 C-126.13169846 145.63072861 -126.29586761 144.43064667 -126.4650116 143.19419861 C-126.77232561 140.94895535 -127.08086354 138.70387916 -127.39082336 136.45899963 C-127.52546494 135.47576218 -127.66010651 134.49252472 -127.79882812 133.47949219 C-127.97581238 132.19446808 -127.97581238 132.19446808 -128.15637207 130.88348389 C-128.40625 128.8203125 -128.40625 128.8203125 -128.40625 126.8203125 C-129.16550781 126.63855469 -129.92476562 126.45679688 -130.70703125 126.26953125 C-131.70089844 126.01816406 -132.69476563 125.76679688 -133.71875 125.5078125 C-134.70488281 125.26417969 -135.69101563 125.02054687 -136.70703125 124.76953125 C-139.45289389 123.80390951 -140.71346244 123.1585107 -142.40625 120.8203125 C-143.06147621 114.70486788 -143.06147621 114.70486788 -141.15625 112.1328125 C-140.57875 111.6996875 -140.00125 111.2665625 -139.40625 110.8203125 C-138.725625 110.1396875 -138.045 109.4590625 -137.34375 108.7578125 C-136.03125 107.4453125 -134.71875 106.1328125 -133.40625 104.8203125 C-133.07625 104.8203125 -132.74625 104.8203125 -132.40625 104.8203125 C-133.038973 95.09635907 -134.12959958 85.47575599 -135.40625 75.8203125 C-132.28927051 73.74232617 -131.62956765 73.57128158 -128.09724426 73.57980347 C-127.21804825 73.57705414 -126.33885223 73.57430481 -125.43301392 73.57147217 C-123.99047745 73.582258 -123.99047745 73.582258 -122.51879883 73.59326172 C-121.50398941 73.59296967 -120.48917999 73.59267761 -119.44361877 73.59237671 C-116.08341982 73.59377201 -112.72344156 73.60934278 -109.36328125 73.625 C-107.03586447 73.62872941 -104.70844613 73.63157672 -102.38102722 73.63357544 C-96.25057655 73.64121752 -90.12022041 73.660871 -83.98980713 73.6829834 C-77.7360563 73.70342942 -71.48229023 73.7125745 -65.22851562 73.72265625 C-52.95437884 73.74411631 -40.68033706 73.77930319 -28.40625 73.8203125 C-28.73625 65.9003125 -29.06625 57.9803125 -29.40625 49.8203125 C-37.98625 49.8203125 -46.56625 49.8203125 -55.40625 49.8203125 C-55.40625 48.5003125 -55.40625 47.1803125 -55.40625 45.8203125 C-53.640625 44.06640625 -53.640625 44.06640625 -51.15625 42.2578125 C-46.25177706 38.55143223 -41.7802453 34.5673027 -37.34277344 30.32592773 C-33.61584881 26.8203125 -33.61584881 26.8203125 -31.40625 26.8203125 C-31.40625 26.1603125 -31.40625 25.5003125 -31.40625 24.8203125 C-29.68673026 23.28179484 -27.90437503 21.81299491 -26.09375 20.3828125 C-22.24157998 17.36795681 -22.24157998 17.36795681 -18.67578125 14.03515625 C-17.40625 12.8203125 -17.40625 12.8203125 -15.40625 12.8203125 C-15.40625 12.1603125 -15.40625 11.5003125 -15.40625 10.8203125 C-12.90614204 8.30159332 -10.12298271 6.10115153 -7.40625 3.8203125 C-6.0759375 2.5828125 -6.0759375 2.5828125 -4.71875 1.3203125 C-2.40625 -0.1796875 -2.40625 -0.1796875 0 0 Z " fill="#1A3350" transform="translate(148.40625,18.1796875)"/>
<path d="M0 0 C3.04834633 0.96408543 4.2588141 2.10347714 6.40625 4.4453125 C9.62291134 7.83032247 12.93704847 10.93810085 16.47265625 13.984375 C18.80914098 16.00674668 21.10989062 18.06500074 23.40625 20.1328125 C24.25058594 20.89207031 25.09492188 21.65132812 25.96484375 22.43359375 C27.7387506 24.04407976 29.50158974 25.66682973 31.25390625 27.30078125 C40.25988411 35.65884704 49.36242436 43.55884385 60.90625 48.1328125 C66.97148 50.6993909 72.97504344 54.20965737 76.59375 59.8203125 C77.28125 62.5703125 77.28125 62.5703125 77.59375 64.8203125 C78.91375 64.8203125 80.23375 64.8203125 81.59375 64.8203125 C81.26375 65.8103125 80.93375 66.8003125 80.59375 67.8203125 C79.38976562 68.02527344 78.18578125 68.23023437 76.9453125 68.44140625 C75.36976308 68.71337609 73.79424379 68.98552057 72.21875 69.2578125 C71.4246875 69.39251953 70.630625 69.52722656 69.8125 69.66601562 C65.57980017 70.33448839 65.57980017 70.33448839 61.59375 71.8203125 C65.48206307 72.72737763 69.12356261 72.96595419 73.11230469 73.00976562 C75.05891998 73.03484192 75.05891998 73.03484192 77.04486084 73.0604248 C77.73281487 73.06710678 78.42076889 73.07378876 79.12957001 73.08067322 C81.28943923 73.10179539 83.44916465 73.12880508 85.60894775 73.15734863 C90.96755761 73.22698214 96.32626882 73.28672287 101.68499756 73.34637451 C106.22397517 73.39723041 110.76287123 73.4519978 115.30173492 73.51219177 C117.4339407 73.53882289 119.56615399 73.55959464 121.69842529 73.5802002 C122.98356018 73.59691772 124.26869507 73.61363525 125.59277344 73.63085938 C126.73018982 73.64338745 127.8676062 73.65591553 129.03948975 73.66882324 C131.59375 73.8203125 131.59375 73.8203125 132.59375 74.8203125 C132.38737173 76.61843804 132.17159006 78.41573938 131.92285156 80.20849609 C131.23556266 85.66295953 130.88425615 91.1522279 130.46875 96.6328125 C130.36949219 97.85935547 130.27023437 99.08589844 130.16796875 100.34960938 C130.07902344 101.52201172 129.99007813 102.69441406 129.8984375 103.90234375 C129.81577637 104.96686768 129.73311523 106.0313916 129.64794922 107.12817383 C129.44122452 109.92150125 129.44122452 109.92150125 130.59375 112.8203125 C131.25375 112.8203125 131.91375 112.8203125 132.59375 112.8203125 C132.92375 113.8103125 133.25375 114.8003125 133.59375 115.8203125 C131.78125 118.5078125 131.78125 118.5078125 129.59375 120.8203125 C128.93375 120.8203125 128.27375 120.8203125 127.59375 120.8203125 C127.46097656 121.95210938 127.32820313 123.08390625 127.19140625 124.25 C127.0132158 125.73179429 126.83481971 127.21356386 126.65625 128.6953125 C126.56923828 129.44167969 126.48222656 130.18804687 126.39257812 130.95703125 C125.70703125 136.59375 125.70703125 136.59375 124.59375 138.8203125 C124.43505791 141.44754817 124.31649408 144.06585502 124.21875 146.6953125 C123.92507608 152.95926612 123.06355164 158.55142613 121.3515625 164.6015625 C120.04652423 170.14461165 119.62899437 175.79217746 119.0546875 181.44921875 C118.46056364 187.27639557 117.52579093 193.03905161 116.59375 198.8203125 C114.21583959 213.75300183 112.30598155 228.73634119 110.4609375 243.7421875 C110.30818359 244.98250732 110.15542969 246.22282715 109.99804688 247.50073242 C109.75928476 249.46114816 109.52452577 251.42207046 109.29882812 253.3840332 C108.36534681 261.39983724 106.91006169 267.52826757 100.59375 272.8203125 C100.861875 272.1809375 101.13 271.5415625 101.40625 270.8828125 C101.798125 269.8721875 102.19 268.8615625 102.59375 267.8203125 C102.82569565 267.23122604 103.0576413 266.64213959 103.2966156 266.03520203 C105.79680004 259.18987298 106.67862763 252.29677637 107.56640625 245.08984375 C107.82410767 243.09032739 108.08180929 241.09081105 108.33952236 239.0912962 C108.69578699 236.30858347 109.04359335 233.5248366 109.3916626 230.74108887 C109.9150253 226.57084794 110.45078995 222.40218644 110.98477077 218.23329449 C111.40108523 214.98124792 111.81504684 211.7289651 112.22438049 208.47602844 C112.44987831 206.68928963 112.44987831 206.68928963 112.67993164 204.86645508 C112.8728756 203.32831902 112.8728756 203.32831902 113.06971741 201.7591095 C113.86608511 195.77335451 114.73977735 189.79812104 115.59375 183.8203125 C118.23375 164.0203125 120.87375 144.2203125 123.59375 123.8203125 C41.09375 123.8203125 -41.40625 123.8203125 -126.40625 123.8203125 C-123.10625 148.2403125 -119.80625 172.6603125 -116.40625 197.8203125 C-115.23328175 206.61757439 -114.0778496 215.40320502 -113.0390625 224.21484375 C-112.66500214 227.30449633 -112.28852474 230.39384737 -111.91162109 233.4831543 C-111.6570257 235.59132837 -111.40706103 237.70006659 -111.16162109 239.80932617 C-110.80023936 242.90452479 -110.42124995 245.99715384 -110.0390625 249.08984375 C-109.88257736 250.48394218 -109.88257736 250.48394218 -109.72293091 251.90620422 C-108.67804705 260.12581179 -106.54407984 268.33102767 -100.65625 274.4453125 C-100.04265625 275.09757812 -99.4290625 275.74984375 -98.796875 276.421875 C-98.33796875 276.88335937 -97.8790625 277.34484375 -97.40625 277.8203125 C-100.40625 277.8203125 -100.40625 277.8203125 -102.125 276.3515625 C-102.7128125 275.68125 -103.300625 275.0109375 -103.90625 274.3203125 C-104.4940625 273.670625 -105.081875 273.0209375 -105.6875 272.3515625 C-110.3588969 265.47186888 -111.23068869 257.74301648 -112.28125 249.68359375 C-112.52887085 247.86967888 -112.52887085 247.86967888 -112.78149414 246.01911926 C-113.23638051 242.6673478 -113.68239856 239.31463672 -114.12371826 235.9610672 C-114.50965222 233.03682962 -114.90160922 230.11340908 -115.29319763 227.18992424 C-116.5742295 217.62023325 -117.83098247 208.04741238 -119.08337402 198.47393799 C-119.51256044 195.19581376 -119.94318768 191.91787957 -120.37387085 188.63995171 C-123.08073283 168.03718364 -125.75745391 147.4306252 -128.40625 126.8203125 C-129.16550781 126.63855469 -129.92476562 126.45679688 -130.70703125 126.26953125 C-131.70089844 126.01816406 -132.69476563 125.76679688 -133.71875 125.5078125 C-134.70488281 125.26417969 -135.69101563 125.02054687 -136.70703125 124.76953125 C-139.45289389 123.80390951 -140.71346244 123.1585107 -142.40625 120.8203125 C-143.06147621 114.70486788 -143.06147621 114.70486788 -141.15625 112.1328125 C-140.57875 111.6996875 -140.00125 111.2665625 -139.40625 110.8203125 C-138.725625 110.1396875 -138.045 109.4590625 -137.34375 108.7578125 C-136.03125 107.4453125 -134.71875 106.1328125 -133.40625 104.8203125 C-133.07625 104.8203125 -132.74625 104.8203125 -132.40625 104.8203125 C-133.038973 95.09635907 -134.12959958 85.47575599 -135.40625 75.8203125 C-132.28927051 73.74232617 -131.62956765 73.57128158 -128.09724426 73.57980347 C-127.21804825 73.57705414 -126.33885223 73.57430481 -125.43301392 73.57147217 C-123.99047745 73.582258 -123.99047745 73.582258 -122.51879883 73.59326172 C-121.50398941 73.59296967 -120.48917999 73.59267761 -119.44361877 73.59237671 C-116.08341982 73.59377201 -112.72344156 73.60934278 -109.36328125 73.625 C-107.03586447 73.62872941 -104.70844613 73.63157672 -102.38102722 73.63357544 C-96.25057655 73.64121752 -90.12022041 73.660871 -83.98980713 73.6829834 C-77.7360563 73.70342942 -71.48229023 73.7125745 -65.22851562 73.72265625 C-52.95437884 73.74411631 -40.68033706 73.77930319 -28.40625 73.8203125 C-28.73625 65.9003125 -29.06625 57.9803125 -29.40625 49.8203125 C-37.98625 49.8203125 -46.56625 49.8203125 -55.40625 49.8203125 C-55.40625 48.5003125 -55.40625 47.1803125 -55.40625 45.8203125 C-53.640625 44.06640625 -53.640625 44.06640625 -51.15625 42.2578125 C-46.25177706 38.55143223 -41.7802453 34.5673027 -37.34277344 30.32592773 C-33.61584881 26.8203125 -33.61584881 26.8203125 -31.40625 26.8203125 C-31.40625 26.1603125 -31.40625 25.5003125 -31.40625 24.8203125 C-29.68673026 23.28179484 -27.90437503 21.81299491 -26.09375 20.3828125 C-22.24157998 17.36795681 -22.24157998 17.36795681 -18.67578125 14.03515625 C-17.40625 12.8203125 -17.40625 12.8203125 -15.40625 12.8203125 C-15.40625 12.1603125 -15.40625 11.5003125 -15.40625 10.8203125 C-12.90614204 8.30159332 -10.12298271 6.10115153 -7.40625 3.8203125 C-6.0759375 2.5828125 -6.0759375 2.5828125 -4.71875 1.3203125 C-2.40625 -0.1796875 -2.40625 -0.1796875 0 0 Z " fill="#1A3350" transform="translate(148.40625,18.1796875)"/>
<path d="M0 0 C3.04834633 0.96408543 4.2588141 2.10347714 6.40625 4.4453125 C9.62291134 7.83032247 12.93704847 10.93810085 16.47265625 13.984375 C18.80914098 16.00674668 21.10989062 18.06500074 23.40625 20.1328125 C24.25058594 20.89207031 25.09492188 21.65132812 25.96484375 22.43359375 C27.7387506 24.04407976 29.50158974 25.66682973 31.25390625 27.30078125 C40.25988411 35.65884704 49.36242436 43.55884385 60.90625 48.1328125 C66.97148 50.6993909 72.97504344 54.20965737 76.59375 59.8203125 C77.28125 62.5703125 77.28125 62.5703125 77.59375 64.8203125 C78.91375 64.8203125 80.23375 64.8203125 81.59375 64.8203125 C81.26375 65.8103125 80.93375 66.8003125 80.59375 67.8203125 C79.38976562 68.02527344 78.18578125 68.23023437 76.9453125 68.44140625 C75.36976308 68.71337609 73.79424379 68.98552057 72.21875 69.2578125 C71.4246875 69.39251953 70.630625 69.52722656 69.8125 69.66601562 C65.57980017 70.33448839 65.57980017 70.33448839 61.59375 71.8203125 C65.48206307 72.72737763 69.12356261 72.96595419 73.11230469 73.00976562 C75.05891998 73.03484192 75.05891998 73.03484192 77.04486084 73.0604248 C77.73281487 73.06710678 78.42076889 73.07378876 79.12957001 73.08067322 C81.28943923 73.10179539 83.44916465 73.12880508 85.60894775 73.15734863 C90.96755761 73.22698214 96.32626882 73.28672287 101.68499756 73.34637451 C106.22397517 73.39723041 110.76287123 73.4519978 115.30173492 73.51219177 C117.4339407 73.53882289 119.56615399 73.55959464 121.69842529 73.5802002 C122.98356018 73.59691772 124.26869507 73.61363525 125.59277344 73.63085938 C126.73018982 73.64338745 127.8676062 73.65591553 129.03948975 73.66882324 C131.59375 73.8203125 131.59375 73.8203125 132.59375 74.8203125 C132.38737173 76.61843804 132.17159006 78.41573938 131.92285156 80.20849609 C131.23556266 85.66295953 130.88425615 91.1522279 130.46875 96.6328125 C130.36949219 97.85935547 130.27023437 99.08589844 130.16796875 100.34960938 C130.07902344 101.52201172 129.99007813 102.69441406 129.8984375 103.90234375 C129.81577637 104.96686768 129.73311523 106.0313916 129.64794922 107.12817383 C129.44122452 109.92150125 129.44122452 109.92150125 130.59375 112.8203125 C131.25375 112.8203125 131.91375 112.8203125 132.59375 112.8203125 C132.92375 113.8103125 133.25375 114.8003125 133.59375 115.8203125 C131.78125 118.5078125 131.78125 118.5078125 129.59375 120.8203125 C128.93375 120.8203125 128.27375 120.8203125 127.59375 120.8203125 C127.46097656 121.95210938 127.32820313 123.08390625 127.19140625 124.25 C127.0132158 125.73179429 126.83481971 127.21356386 126.65625 128.6953125 C126.56923828 129.44167969 126.48222656 130.18804687 126.39257812 130.95703125 C125.70703125 136.59375 125.70703125 136.59375 124.59375 138.8203125 C124.43505791 141.44754817 124.31649408 144.06585502 124.21875 146.6953125 C123.92507608 152.95926612 123.06355164 158.55142613 121.3515625 164.6015625 C120.04652423 170.14461165 119.62899437 175.79217746 119.0546875 181.44921875 C118.46056364 187.27639557 117.52579093 193.03905161 116.59375 198.8203125 C114.21583959 213.75300183 112.30598155 228.73634119 110.4609375 243.7421875 C110.30818359 244.98250732 110.15542969 246.22282715 109.99804688 247.50073242 C109.75928476 249.46114816 109.52452577 251.42207046 109.29882812 253.3840332 C108.36534681 261.39983724 106.91006169 267.52826757 100.59375 272.8203125 C100.861875 272.1809375 101.13 271.5415625 101.40625 270.8828125 C101.798125 269.8721875 102.19 268.8615625 102.59375 267.8203125 C102.82569565 267.23122604 103.0576413 266.64213959 103.2966156 266.03520203 C105.79680004 259.18987298 106.67862763 252.29677637 107.56640625 245.08984375 C107.82410767 243.09032739 108.08180929 241.09081105 108.33952236 239.0912962 C108.69578699 236.30858347 109.04359335 233.5248366 109.3916626 230.74108887 C109.9150253 226.57084794 110.45078995 222.40218644 110.98477077 218.23329449 C111.40108523 214.98124792 111.81504684 211.7289651 112.22438049 208.47602844 C112.44987831 206.68928963 112.44987831 206.68928963 112.67993164 204.86645508 C112.8728756 203.32831902 112.8728756 203.32831902 113.06971741 201.7591095 C113.86608511 195.77335451 114.73977735 189.79812104 115.59375 183.8203125 C118.23375 164.0203125 120.87375 144.2203125 123.59375 123.8203125 C41.09375 123.8203125 -41.40625 123.8203125 -126.40625 123.8203125 C-123.10625 148.2403125 -119.80625 172.6603125 -116.40625 197.8203125 C-115.23328175 206.61757439 -114.0778496 215.40320502 -113.0390625 224.21484375 C-112.66500214 227.30449633 -112.28852474 230.39384737 -111.91162109 233.4831543 C-111.6570257 235.59132837 -111.40706103 237.70006659 -111.16162109 239.80932617 C-110.80023936 242.90452479 -110.42124995 245.99715384 -110.0390625 249.08984375 C-109.88257736 250.48394218 -109.88257736 250.48394218 -109.72293091 251.90620422 C-108.67804705 260.12581179 -106.54407984 268.33102767 -100.65625 274.4453125 C-100.04265625 275.09757812 -99.4290625 275.74984375 -98.796875 276.421875 C-98.33796875 276.88335937 -97.8790625 277.34484375 -97.40625 277.8203125 C-100.40625 277.8203125 -100.40625 277.8203125 -102.125 276.3515625 C-102.7128125 275.68125 -103.300625 275.0109375 -103.90625 274.3203125 C-104.4940625 273.670625 -105.081875 273.0209375 -105.6875 272.3515625 C-110.3588969 265.47186888 -111.23068869 257.74301648 -112.28125 249.68359375 C-112.52887085 247.86967888 -112.52887085 247.86967888 -112.78149414 246.01911926 C-113.23638051 242.6673478 -113.68239856 239.31463672 -114.12371826 235.9610672 C-114.50965222 233.03682962 -114.90160922 230.11340908 -115.29319763 227.18992424 C-116.5742295 217.62023325 -117.83098247 208.04741238 -119.08337402 198.47393799 C-119.51256044 195.19581376 -119.94318768 191.91787957 -120.37387085 188.63995171 C-123.08073283 168.03718364 -125.75745391 147.4306252 -128.40625 126.8203125 C-129.16550781 126.63855469 -129.92476562 126.45679688 -130.70703125 126.26953125 C-131.70089844 126.01816406 -132.69476563 125.76679688 -133.71875 125.5078125 C-134.70488281 125.26417969 -135.69101563 125.02054687 -136.70703125 124.76953125 C-139.45289389 123.80390951 -140.71346244 123.1585107 -142.40625 120.8203125 C-143.06147621 114.70486788 -143.06147621 114.70486788 -141.15625 112.1328125 C-140.57875 111.6996875 -140.00125 111.2665625 -139.40625 110.8203125 C-138.725625 110.1396875 -138.045 109.4590625 -137.34375 108.7578125 C-136.03125 107.4453125 -134.71875 106.1328125 -133.40625 104.8203125 C-133.07625 104.8203125 -132.74625 104.8203125 -132.40625 104.8203125 C-133.038973 95.09635907 -134.12959958 85.47575599 -135.40625 75.8203125 C-132.28927051 73.74232617 -131.62956765 73.57128158 -128.09724426 73.57980347 C-127.21804825 73.57705414 -126.33885223 73.57430481 -125.43301392 73.57147217 C-123.99047745 73.582258 -123.99047745 73.582258 -122.51879883 73.59326172 C-121.50398941 73.59296967 -120.48917999 73.59267761 -119.44361877 73.59237671 C-116.08341982 73.59377201 -112.72344156 73.60934278 -109.36328125 73.625 C-107.03586447 73.62872941 -104.70844613 73.63157672 -102.38102722 73.63357544 C-96.25057655 73.64121752 -90.12022041 73.660871 -83.98980713 73.6829834 C-77.7360563 73.70342942 -71.48229023 73.7125745 -65.22851562 73.72265625 C-52.95437884 73.74411631 -40.68033706 73.77930319 -28.40625 73.8203125 C-28.73625 65.9003125 -29.06625 57.9803125 -29.40625 49.8203125 C-37.98625 49.8203125 -46.56625 49.8203125 -55.40625 49.8203125 C-55.40625 48.5003125 -55.40625 47.1803125 -55.40625 45.8203125 C-53.640625 44.06640625 -53.640625 44.06640625 -51.15625 42.2578125 C-46.25177706 38.55143223 -41.7802453 34.5673027 -37.34277344 30.32592773 C-33.61584881 26.8203125 -33.61584881 26.8203125 -31.40625 26.8203125 C-31.40625 26.1603125 -31.40625 25.5003125 -31.40625 24.8203125 C-29.68673026 23.28179484 -27.90437503 21.81299491 -26.09375 20.3828125 C-22.24157998 17.36795681 -22.24157998 17.36795681 -18.67578125 14.03515625 C-17.40625 12.8203125 -17.40625 12.8203125 -15.40625 12.8203125 C-15.40625 12.1603125 -15.40625 11.5003125 -15.40625 10.8203125 C-12.90614204 8.30159332 -10.12298271 6.10115153 -7.40625 3.8203125 C-6.0759375 2.5828125 -6.0759375 2.5828125 -4.71875 1.3203125 C-2.40625 -0.1796875 -2.40625 -0.1796875 0 0 Z M-4.703125 3.4453125 C-5.51265625 4.2290625 -6.3221875 5.0128125 -7.15625 5.8203125 C-8.03796875 6.655625 -8.9196875 7.4909375 -9.828125 8.3515625 C-10.67890625 9.16625 -11.5296875 9.9809375 -12.40625 10.8203125 C-13.73152729 11.99612243 -15.06416756 13.16372113 -16.40625 14.3203125 C-20.30415485 17.71526189 -24.13972057 21.17697134 -27.9765625 24.640625 C-30.0623118 26.51176344 -32.16442628 28.35956081 -34.28125 30.1953125 C-37.80869081 33.26829775 -41.26911406 36.41064896 -44.71875 39.5703125 C-45.2348584 40.04259277 -45.7509668 40.51487305 -46.28271484 41.00146484 C-48.70925491 43.23037538 -51.07560755 45.48967005 -53.40625 47.8203125 C-44.82625 47.8203125 -36.24625 47.8203125 -27.40625 47.8203125 C-27.40625 57.0603125 -27.40625 66.3003125 -27.40625 75.8203125 C-62.38625 75.8203125 -97.36625 75.8203125 -133.40625 75.8203125 C-132.68736367 83.72806213 -131.88434449 91.57213602 -130.90625 99.4453125 C-130.77605469 100.53199219 -130.64585937 101.61867188 -130.51171875 102.73828125 C-130.38410156 103.76824219 -130.25648438 104.79820313 -130.125 105.859375 C-130.01091797 106.78959473 -129.89683594 107.71981445 -129.77929688 108.67822266 C-129.62205819 110.79627251 -129.62205819 110.79627251 -128.40625 111.8203125 C-127.04575734 111.91671023 -125.68029339 111.94403187 -124.31639004 111.94336033 C-122.98622975 111.9463469 -122.98622975 111.9463469 -121.62919754 111.94939381 C-120.64380951 111.94648097 -119.65842149 111.94356813 -118.64317322 111.94056702 C-117.60509649 111.94142144 -116.56701977 111.94227587 -115.49748617 111.94315618 C-111.99041313 111.94481409 -108.48338706 111.93928455 -104.97631836 111.93383789 C-102.47373964 111.93355606 -99.97116083 111.93371367 -97.46858215 111.9342804 C-92.06596711 111.93450872 -86.66336742 111.93165726 -81.26075554 111.92604256 C-73.44940202 111.91792982 -65.63805434 111.91531257 -57.82669706 111.91405457 C-45.15456231 111.91186369 -32.48243399 111.90520264 -19.81030273 111.89575195 C-7.49747754 111.88657876 4.81534591 111.87949747 17.12817383 111.87524414 C18.26582506 111.87485006 18.26582506 111.87485006 19.42645914 111.87444801 C23.23114259 111.87314301 27.03582606 111.87187929 30.84050953 111.87063611 C62.42492769 111.86026238 94.00933787 111.84256898 125.59375 111.8203125 C126.31092395 107.49781355 127.02283856 103.17449049 127.72998047 98.8503418 C127.9710636 97.38070548 128.2135598 95.91130021 128.45751953 94.44213867 C128.80877192 92.3253054 129.15486456 90.20768187 129.5 88.08984375 C129.81420898 86.18102417 129.81420898 86.18102417 130.13476562 84.23364258 C130.70480729 80.56842109 130.70480729 80.56842109 130.59375 75.8203125 C95.61375 75.8203125 60.63375 75.8203125 24.59375 75.8203125 C24.59375 66.5803125 24.59375 57.3403125 24.59375 47.8203125 C32.84375 47.8203125 41.09375 47.8203125 49.59375 47.8203125 C49.82838655 45.75093583 49.82838655 45.75093583 48.30078125 44.515625 C47.67558594 43.99742188 47.05039063 43.47921875 46.40625 42.9453125 C42.54140918 39.6639734 38.80518426 36.27226202 35.09375 32.8203125 C30.98851863 29.01252779 26.85244189 25.25715569 22.6171875 21.59375 C20.07873829 19.36893158 17.58733224 17.09527931 15.09375 14.8203125 C14.16433594 13.97597656 13.23492187 13.13164062 12.27734375 12.26171875 C10.59763191 10.73359663 8.92240025 9.20051882 7.25390625 7.66015625 C6.21556641 6.71849609 6.21556641 6.71849609 5.15625 5.7578125 C4.55941406 5.20996094 3.96257812 4.66210938 3.34765625 4.09765625 C0.15465096 1.77223814 -1.32500606 1.0553508 -4.703125 3.4453125 Z " fill="#F4F5F6" transform="translate(148.40625,18.1796875)"/>
<path d="M0 0 C3.30876884 0.45659264 5.01739043 1.62534092 7.390625 3.9140625 C8.01364502 4.50678955 8.63666504 5.0995166 9.27856445 5.71020508 C9.92913818 6.3420874 10.57971191 6.97396973 11.25 7.625 C12.60205057 8.91361504 13.95490624 10.20138592 15.30859375 11.48828125 C16.27321533 12.40988037 16.27321533 12.40988037 17.25732422 13.35009766 C19.80984484 15.76673177 22.45042639 18.07010689 25.11328125 20.36328125 C27.43658787 22.37873772 29.71748465 24.43848462 32 26.5 C39.43096675 33.2061743 39.43096675 33.2061743 47.05078125 39.6953125 C47.69402344 40.22898438 48.33726562 40.76265625 49 41.3125 C49.5775 41.78300781 50.155 42.25351562 50.75 42.73828125 C52 44 52 44 52 46 C43.75 46 35.5 46 27 46 C27 55.24 27 64.48 27 74 C9.84 74 -7.32 74 -25 74 C-25 64.76 -25 55.52 -25 46 C-33.58 46 -42.16 46 -51 46 C-46.7929227 41.7929227 -42.52733505 37.69129888 -38.1875 33.625 C-37.51396484 32.99078125 -36.84042969 32.3565625 -36.14648438 31.703125 C-32.09775401 27.90622954 -27.98327609 24.20262343 -23.79272461 20.56298828 C-21.56036868 18.61670711 -19.37334135 16.62326477 -17.1875 14.625 C-12.63263693 10.50864859 -7.92738012 6.60753289 -3.15234375 2.75 C-1.14403815 1.17822462 -1.14403815 1.17822462 0 0 Z " fill="#2DA2DB" transform="translate(146,20)"/>
<path d="M0 0 C3.04834633 0.96408543 4.2588141 2.10347714 6.40625 4.4453125 C9.62291134 7.83032247 12.93704847 10.93810085 16.47265625 13.984375 C18.80914098 16.00674668 21.10989062 18.06500074 23.40625 20.1328125 C24.67275391 21.27169922 24.67275391 21.27169922 25.96484375 22.43359375 C27.7387506 24.04407976 29.50158974 25.66682973 31.25390625 27.30078125 C40.25988411 35.65884704 49.36242436 43.55884385 60.90625 48.1328125 C66.97148 50.6993909 72.97504344 54.20965737 76.59375 59.8203125 C77.28125 62.5703125 77.28125 62.5703125 77.59375 64.8203125 C78.91375 64.8203125 80.23375 64.8203125 81.59375 64.8203125 C81.09875 66.3053125 81.09875 66.3053125 80.59375 67.8203125 C79.38976562 68.02527344 78.18578125 68.23023437 76.9453125 68.44140625 C75.36976308 68.71337609 73.79424379 68.98552057 72.21875 69.2578125 C71.4246875 69.39251953 70.630625 69.52722656 69.8125 69.66601562 C65.57980017 70.33448839 65.57980017 70.33448839 61.59375 71.8203125 C65.77651251 72.80883753 69.79088486 73.01704534 74.08203125 73.13671875 C75.1368293 73.1678904 75.1368293 73.1678904 76.2129364 73.19969177 C78.44394817 73.26471365 80.67507069 73.32385026 82.90625 73.3828125 C84.42514134 73.42604286 85.94402177 73.46965855 87.46289062 73.51367188 C91.1730612 73.62034584 94.88335421 73.72174471 98.59375 73.8203125 C94.96815859 76.09682534 91.93841024 76.06255948 87.71386719 76.04736328 C87.03053314 76.04765533 86.3471991 76.04794739 85.64315796 76.04824829 C83.39218294 76.04685874 81.14154196 76.03131552 78.890625 76.015625 C77.32692648 76.01189353 75.76322562 76.00904719 74.19952393 76.00704956 C70.08953362 75.99942364 65.9796853 75.97978414 61.86975098 75.9576416 C57.67360352 75.93716072 53.47743306 75.92804305 49.28125 75.91796875 C41.05201101 75.8965372 32.82291454 75.86136359 24.59375 75.8203125 C24.59375 66.5803125 24.59375 57.3403125 24.59375 47.8203125 C32.84375 47.8203125 41.09375 47.8203125 49.59375 47.8203125 C49.59375 47.1603125 49.59375 46.5003125 49.59375 45.8203125 C49.01753906 45.57410156 48.44132812 45.32789063 47.84765625 45.07421875 C45.2313347 43.61869151 43.58483164 41.93422519 41.53125 39.7578125 C37.33203439 35.44790916 32.85166031 31.70373578 28.16015625 27.9453125 C25.34029218 25.61044788 22.80075906 23.11949721 20.2578125 20.4921875 C17.87932681 18.10253521 15.34046149 15.92276793 12.77734375 13.734375 C11.15162949 12.3093303 9.56637162 10.83787224 8.00390625 9.34375 C7.12605469 8.51101562 6.24820313 7.67828125 5.34375 6.8203125 C4.12945312 5.6446875 4.12945312 5.6446875 2.890625 4.4453125 C0.79894664 2.64228709 0.79894664 2.64228709 -1.34375 2.78515625 C-4.3030609 4.27041646 -6.63059168 6.24802987 -9.15625 8.3828125 C-10.14109375 9.20910156 -11.1259375 10.03539062 -12.140625 10.88671875 C-12.88828125 11.52480469 -13.6359375 12.16289062 -14.40625 12.8203125 C-14.73625 12.1603125 -15.06625 11.5003125 -15.40625 10.8203125 C-13.44481967 9.08763459 -11.47821515 7.36196189 -9.5 5.6484375 C-7.8806482 4.23452585 -6.29277207 2.78451908 -4.71875 1.3203125 C-2.40625 -0.1796875 -2.40625 -0.1796875 0 0 Z " fill="#FDFEFE" transform="translate(148.40625,18.1796875)"/>
<path d="M0 0 C0.33 0 0.66 0 1 0 C2.15774649 4.63098598 3.19218189 10.61563621 1 15 C0.84130791 17.62723567 0.72274408 20.24554252 0.625 22.875 C0.33132608 29.13895362 -0.53019836 34.73111363 -2.2421875 40.78125 C-3.54722577 46.32429915 -3.96475563 51.97186496 -4.5390625 57.62890625 C-5.13318636 63.45608307 -6.06795907 69.21873911 -7 75 C-9.37791041 89.93268933 -11.28776845 104.91602869 -13.1328125 119.921875 C-13.28556641 121.16219482 -13.43832031 122.40251465 -13.59570312 123.68041992 C-13.83446524 125.64083566 -14.06922423 127.60175796 -14.29492188 129.5637207 C-15.22840319 137.57952474 -16.68368831 143.70795507 -23 149 C-22.731875 148.360625 -22.46375 147.72125 -22.1875 147.0625 C-21.795625 146.051875 -21.40375 145.04125 -21 144 C-20.76805435 143.41091354 -20.5361087 142.82182709 -20.2971344 142.21488953 C-17.79694996 135.36956048 -16.91512237 128.47646387 -16.02734375 121.26953125 C-15.76964233 119.27001489 -15.51194071 117.27049855 -15.25422764 115.2709837 C-14.89796301 112.48827097 -14.55015665 109.7045241 -14.2020874 106.92077637 C-13.6787247 102.75053544 -13.14296005 98.58187394 -12.60897923 94.41298199 C-12.19266477 91.16093542 -11.77870316 87.9086526 -11.36936951 84.65571594 C-10.47846711 77.59662375 -9.51892527 70.55140786 -8.501297 63.50950623 C-7.64496069 57.51442227 -6.85178285 51.51101153 -6.0546875 45.5078125 C-5.87824204 44.18259929 -5.70173734 42.85739396 -5.525177 41.53219604 C-5.06759024 38.09653367 -4.61079115 34.66076705 -4.1541748 31.22497559 C-3.68530457 27.69809556 -3.21566355 24.17131819 -2.74609375 20.64453125 C-1.82998878 13.76311924 -0.91471865 6.88159642 0 0 Z " fill="#E4E7E8" transform="translate(272,142)"/>
<path d="M0 0 C0.33 0 0.66 0 1 0 C1.35215495 9.45601259 0.843546 18.25269697 -0.79223633 27.56201172 C-1.84877339 33.67452529 -2.48687848 39.75739596 -3 45.9375 C-4.80566621 66.44457604 -4.80566621 66.44457604 -12 75 C-12 71.78604272 -11.34445165 70.15839888 -10.13378906 67.21362305 C-7.61387723 60.44858739 -6.72190377 53.72124928 -5.859375 46.58203125 C-5.68683974 45.22997572 -5.51317369 43.87806406 -5.33843994 42.52629089 C-4.88668191 39.00800785 -4.45007082 35.48801373 -4.0168457 31.96740723 C-3.57004129 28.35924699 -3.1085804 24.7529634 -2.6484375 21.14648438 C-1.7514658 14.09940212 -0.87052082 7.05040281 0 0 Z " fill="#D7DBDD" transform="translate(262,216)"/>
<path d="M0 0 C3.04834633 0.96408543 4.2588141 2.10347714 6.40625 4.4453125 C9.61911383 7.82632621 12.92803375 10.93158812 16.4609375 13.97265625 C18.86751821 16.057478 21.23139945 18.18552783 23.59375 20.3203125 C27.88969745 24.19730532 32.22526246 28.02534148 36.59375 31.8203125 C35.93375 32.4803125 35.27375 33.1403125 34.59375 33.8203125 C34.15095703 33.40257568 33.70816406 32.98483887 33.25195312 32.55444336 C31.20060083 30.62076099 29.14718683 28.68928101 27.09375 26.7578125 C26.39765625 26.10103516 25.7015625 25.44425781 24.984375 24.76757812 C20.86383246 20.8950312 16.67859942 17.12039933 12.40625 13.41625977 C9.13421908 10.5351625 6.02244199 7.4773901 2.890625 4.4453125 C0.79894664 2.64228709 0.79894664 2.64228709 -1.34375 2.78515625 C-4.3030609 4.27041646 -6.63059168 6.24802987 -9.15625 8.3828125 C-10.14109375 9.20910156 -11.1259375 10.03539062 -12.140625 10.88671875 C-12.88828125 11.52480469 -13.6359375 12.16289062 -14.40625 12.8203125 C-14.73625 12.1603125 -15.06625 11.5003125 -15.40625 10.8203125 C-13.44481967 9.08763459 -11.47821515 7.36196189 -9.5 5.6484375 C-7.8806482 4.23452585 -6.29277207 2.78451908 -4.71875 1.3203125 C-2.40625 -0.1796875 -2.40625 -0.1796875 0 0 Z " fill="#EDF6F9" transform="translate(148.40625,18.1796875)"/>
<path d="M0 0 C1.08665703 0.00068733 1.08665703 0.00068733 2.19526672 0.00138855 C3.72077073 0.00440141 5.24627192 0.01225874 6.77172852 0.0246582 C9.11550691 0.04298615 11.45889159 0.04516728 13.80273438 0.04492188 C15.28515969 0.04983471 16.76758232 0.055662 18.25 0.0625 C18.95412521 0.06361282 19.65825043 0.06472565 20.38371277 0.06587219 C25.30970589 0.11439339 25.30970589 0.11439339 26.42578125 1.23046875 C26.21843131 3.13470293 26.00215292 5.03845509 25.73730469 6.93554688 C25.43647543 9.1516872 25.2051389 11.3633629 24.99609375 13.58984375 C24.92261719 14.31300781 24.84914063 15.03617188 24.7734375 15.78125 C24.62351043 17.26210856 24.48306342 18.74395409 24.3515625 20.2265625 C23.91115751 24.38428419 23.37068864 27.17291463 20.42578125 30.23046875 C20.71170896 27.43811087 21.00440415 24.64672172 21.30078125 21.85546875 C21.37941406 21.08074219 21.45804687 20.30601563 21.5390625 19.5078125 C22.17306241 13.60673637 23.25055183 8.10661583 24.42578125 2.23046875 C12.54578125 2.23046875 0.66578125 2.23046875 -11.57421875 2.23046875 C-7.37927983 0.13299929 -4.52696134 -0.04659901 0 0 Z " fill="#FAFBFB" transform="translate(254.57421875,91.76953125)"/>
<path d="M0 0 C0.66 0.33 1.32 0.66 2 1 C-13.47335567 15.5334702 -13.47335567 15.5334702 -19.58203125 20.765625 C-20.76512094 21.79553228 -21.89085388 22.89085388 -23 24 C-23.99 23.67 -24.98 23.34 -26 23 C-24.38050958 21.49405319 -22.75424026 19.99539332 -21.125 18.5 C-20.22007813 17.6646875 -19.31515625 16.829375 -18.3828125 15.96875 C-16 14 -16 14 -14 14 C-14 13.34 -14 12.68 -14 12 C-12.28048026 10.46148234 -10.49812503 8.99268241 -8.6875 7.5625 C-4.15615016 3.98901832 -4.15615016 3.98901832 0 0 Z " fill="#E7F4F9" transform="translate(131,31)"/>
<path d="M0 0 C0.33 0 0.66 0 1 0 C2.98403334 7.93613337 2.19346164 14.57300434 -1 22 C-1.66 22.99 -2.32 23.98 -3 25 C-2.68978487 21.95808469 -2.37690547 18.91648266 -2.0625 15.875 C-1.97548828 15.0190625 -1.88847656 14.163125 -1.79882812 13.28125 C-1.33583609 8.82280819 -0.80306863 4.41326006 0 0 Z " fill="#D5DBDE" transform="translate(272,142)"/>
<path d="M0 0 C0.33 0 0.66 0 1 0 C1.55353075 11.52164009 1.55353075 11.52164009 -2 17 C-2.33 17 -2.66 17 -3 17 C-3.40368295 10.54107286 -2.5915262 5.93891422 0 0 Z " fill="#EEF1F1" transform="translate(271,163)"/>
<path d="M0 0 C0.66 0.33 1.32 0.66 2 1 C0.71142987 2.31554021 -0.58095891 3.62734097 -1.875 4.9375 C-2.59429687 5.66839844 -3.31359375 6.39929687 -4.0546875 7.15234375 C-6 9 -6 9 -8 10 C-6.68 10.66 -5.36 11.32 -4 12 C-6.31 12.33 -8.62 12.66 -11 13 C-11 11.68 -11 10.36 -11 9 C-8.84765625 6.89453125 -8.84765625 6.89453125 -6.0625 4.8125 C-5.14597656 4.11769531 -4.22945313 3.42289063 -3.28515625 2.70703125 C-2.15400391 1.86205078 -2.15400391 1.86205078 -1 1 C-0.67 0.67 -0.34 0.34 0 0 Z " fill="#F3F9FB" transform="translate(104,55)"/>
<path d="M0 0 C0.33 0 0.66 0 1 0 C1.44219653 16.3367052 1.44219653 16.3367052 -3 23 C-2.6902353 20.1038504 -2.37728812 17.20810424 -2.0625 14.3125 C-1.97548828 13.49587891 -1.88847656 12.67925781 -1.79882812 11.83789062 C-1.36241272 7.84549781 -0.88697624 3.92347148 0 0 Z " fill="#D3D9DD" transform="translate(278,99)"/>
<path d="M0 0 C0.33 0 0.66 0 1 0 C1.21192221 5.19209404 0.5912689 9.126739 -1 14 C-1.33 14 -1.66 14 -2 14 C-2.3690205 4.58997722 -2.3690205 4.58997722 0 0 Z " fill="#F9FAF9" transform="translate(265,207)"/>
<path d="M0 0 C0.33 0 0.66 0 1 0 C1.22331199 1.58129029 1.42804644 3.16521089 1.625 4.75 C1.74101562 5.63171875 1.85703125 6.5134375 1.9765625 7.421875 C2.00207817 10.22859878 1.44843844 11.63384866 0 14 C-0.33 14 -0.66 14 -1 14 C-0.67 9.38 -0.34 4.76 0 0 Z " fill="#D7DCDD" transform="translate(265,194)"/>
<path d="M0 0 C0.33 0 0.66 0 1 0 C1.33292585 4.24480464 1.43885872 6.35542625 -1 9.9375 C-1.66 10.618125 -2.32 11.29875 -3 12 C-2.14285714 3.42857143 -2.14285714 3.42857143 0 0 Z " fill="#ECEEEE" transform="translate(277,118)"/>
</svg>
